<svg height='100px' width='100px'  fill="#ff0000" xmlns="http://www.w3.org/2000/svg" xmlns:xlink="http://www.w3.org/1999/xlink" version="1.1" x="0px" y="0px" viewBox="0 0 640 640" enable-background="new 0 0 640 640" xml:space="preserve"><g><path d="M263.954,408.148c0,0,7.861-33.036,57.221-33.326c42.109-0.25,54.014,27.698,58.772,34.624   c-7.104-3.662-29.833-22.287-56.48-20.775C292.952,390.401,272.177,399.491,263.954,408.148z"></path><path d="M216.344,425.677c0,0-0.158,0.074-0.45,0.229c-2.854,1.502-18.297,10.5-17.51,28.771   c0.864,20.124,29.862,49.556,84.829,47.825c-8.245-3.38-43.713-10.388-58.646-27.701c-14.932-17.313-16.982-39.884-8.382-49.049"></path><g><path d="M333.414,185.439c-2.939-1.766-14.194-3.118-16.058,0.802c-1.123,2.368,0.55,5.375,1.812,7.305    c2.646,4.046,6.652,6.76,11.73,6.231C337.144,199.123,338.413,188.44,333.414,185.439z"></path><path d="M307.873,203.584c-0.103,1.617,0.251,3.852,2.247,3.928c2,0.078,2.865-3.555,3.312-5.071    c0.159,1.568,0.108,5.197,2.059,5.865c1.954,0.67,2.98-1.612,2.921-3.207c-0.131-3.498-2.676-8.994-4.754-11.68    C311.094,194.837,308.061,200.7,307.873,203.584z"></path><path d="M309.563,186.241c-1.863-3.92-13.12-2.568-16.054-0.802c-4.999,3.001-3.73,13.684,2.512,14.338    c5.073,0.529,9.083-2.185,11.73-6.231C309.019,191.617,310.687,188.609,309.563,186.241z"></path><path d="M585.596,229.47c-29.543,0-105.286-10.516-170.42-107.927c-13.912-20.808-29.58-36.214-46.624-45.86    c-11.402,15.165-29.114,24.083-48.272,24.083c-19.161,0-36.873-8.919-48.273-24.083c-17.042,9.645-32.712,25.051-46.626,45.86    C160.247,218.954,84.502,229.47,54.962,229.47c-2.315,0-4.374-0.063-6.154-0.155c15.961,47.455,84.205,54.768,124.691,54.768    c39.608,0,76.292-6.774,97.412-13.112c16.461-4.939,32.867-8.392,48.765-10.266l0.604-0.071l0.604,0.071    c15.902,1.875,32.309,5.328,48.76,10.266c21.12,6.338,57.804,13.112,97.412,13.112c40.487,0,108.733-7.313,124.692-54.768    C589.968,229.406,587.908,229.47,585.596,229.47z M378.459,221.469c-3.137,1.412-9.125,0.049-10.906,3.351    c-2.237,4.171-0.054,9.905-5.055,12.897c-3.229,1.934-5.973,0.057-7.256-3.09c-1.476-3.595,2.261-7.246,0.512-10.891    c-1.805-3.75-7.54-5.567-10.939-7.286c-4.974-2.512-9.976-4.969-14.986-7.407c-1.24,1.104-2.239,2.575-2.875,4.775    c-0.999,3.478-1.237,7.549-3.271,10.653c-1.806,2.753-4.699,3.148-7.674,3.182c-0.973,0.009-1.95-0.017-2.901-0.012    c-2.475,0.008-4.949-0.708-6.95-2.162c-2.427-1.77-2.643-4.084-3.551-6.849c-0.74-2.249-2.056-4.931-3.897-6.491    c-1.843-1.569-4.495-1.983-6.699-3.155c-0.047,0.021-0.091,0.043-0.134,0.063c-3.882,1.928-7.724,3.383-11.4,5.692    c-3.193,2.007-7.111,3.183-9.186,6.644c-2,3.333-1.698,7.816-5.152,10.214c-3.393,2.358-8.204,1.711-10.199-2.039    c-2.627-4.947,0.665-6.276,4.103-8.66c2.349-1.625,1.403-4.282-1.27-4.708c-2.016-0.319-4.169,1.049-6.249,0.935    c-6.42-0.347-6.121-12.802-0.319-13.648c2.008-0.294,4.572,2.486,6.498,3.242c3.395,1.341,5.747,2.541,9.389,1.482    c2.062-0.597,4.224-1.151,6.363-1.715c4.126-1.089,8.172-2.398,12.181-3.834c-2.225-4.928-3.526-10.201-3.743-15.595    c-2.951-1.181-5.819-2.388-8.973-3.195c-3.655-0.938-7.205-2.967-11.142-2.098c-3.798,0.843-6.838,4.145-10.957,3.291    c-4.047-0.846-6.883-4.778-5.535-8.806c1.778-5.31,5.014-3.834,9.104-2.98c2.794,0.589,4.077-1.927,2.545-4.159    c-1.158-1.688-3.63-2.312-4.982-3.894c-4.16-4.893,5.083-13.249,9.687-9.624c1.596,1.258,1.347,5.035,2.119,6.954    c1.36,3.38,2.109,5.913,5.384,7.829c1.854,1.085,3.742,2.272,5.625,3.436c2.446,1.514,4.948,2.93,7.48,4.286    c0.574-4.693,1.924-9.227,4.938-13.042c4.962-6.287,12.877-10.774,20.845-11.606c9.181-0.955,19.136,2.729,25.973,8.847    c5.358,4.793,7.281,11.235,8.429,18.028c3.187-1.167,6.373-2.326,9.582-3.423c4.557-1.558,9.166-2.794,11.525-7.337    c2.245-4.334,3.322-9.944,8.455-11.936c5.123-1.983,8.369,2.355,6.7,7.124c-1.134,3.247-6.244,6.652-5.063,10.216    c1.481,4.494,7.141,6.858,5.874,12.539c-0.819,3.681-4.068,4.375-7.234,3.15c-3.624-1.406-3.709-6.634-7.549-7.87    c-3.964-1.272-9.237,1.641-12.816,2.926c-2.793,1-5.575,2.019-8.361,3.048c0.436,5.556-0.087,11.434-4.737,14.735    c-0.34,0.242-0.682,0.464-1.024,0.674c4.183,2.066,8.365,4.135,12.502,6.3c4.266,2.236,8.338,4.733,13.255,3.317    c4.698-1.352,9.503-4.433,14.479-2.078C383.986,214.059,383.066,219.403,378.459,221.469z"></path></g><g><path d="M513.254,368.759c9.383-23.253,5.302-61.5-0.994-82.852c-14.563,2.327-29.906,3.338-45.203,3.338    c-10.278,0-20.523-0.467-30.496-1.276c0.246,0.297,0.499,0.587,0.739,0.889c-4.688,5.637-12.297,12.882-24.623,19.146    c-7.72-12.177-21.306-20.265-36.788-20.265c-19.056,0-35.241,12.246-41.144,29.294c-23.013-0.981-45.151-4.325-64.492-9.454    c-22.319-5.921-43.448-12.988-62.068-19.958c-11.275,1.034-22.964,1.625-34.686,1.625c-14.358,0-28.756-0.898-42.515-2.934    c-14.33,33.71-11.034,65.128-1.636,82.882c-64.531-13.238-87.236,46.771-80.565,72.781c18.192,70.913,80.241,52.408,93.226,44.619    c22.071,34.084,81.586,80.612,188.921,77.582c107.338-3.03,155.489-57.348,167.176-76.824    c71.414,29.863,94.799-32.893,94.785-54.534C592.848,357.84,519.313,367.029,513.254,368.759z M137.153,441.799    c0,0-11.686-13.635-29.213-6.17c-17.532,7.467-11.688,21.749-10.715,27.593c-3.894-0.975-14.933-0.756-15.905-26.292    c-0.501-13.193,16.662-28.136,31.326-29.541c11.478-1.101,28.079,6.166,31.649,17.854L137.153,441.799z M269.324,335.273    c2.495,5.232,2.114,10.621-0.852,12.036c-2.967,1.414-7.396-1.683-9.891-6.913c-2.494-5.231-2.11-10.621,0.854-12.035    C262.404,326.947,266.83,330.041,269.324,335.273z M463.836,471.332c-8.09,43.926-63.002,82.075-135.824,86.119    c-72.827,4.047-145.074-41.614-150.276-86.119c-5.203-44.504,26.58-69.033,26.58-69.033s0.271-8.545-0.308-8.545    c-28.531-34.972-21.456-72.213-5.551-95.917c18,6.889,38.547,13.975,60.39,20.101c-7.479,3.14-9.843,16.097-5.229,29.428    c4.727,13.65,14.961,22.493,22.861,19.757c7.902-2.735,10.478-16.018,5.752-29.663c-2.368-6.835-6.118-12.466-10.266-16.041    c19.567,4.846,39.928,7.968,60.399,9.211c-0.003,0.217-0.016,0.432-0.016,0.649c0,24.045,19.493,43.54,43.54,43.54    c24.046,0,43.54-19.495,43.54-43.54c0-3.001-0.305-5.93-0.881-8.756c9.082-4.35,18.935-10.799,27.263-20.222    c9.242,18.503,11.615,40.033,9.014,53.042c-5.202,26.009-19.52,39.016-19.52,39.016s-0.368,1.26,0.213,5.883    C441.299,407.179,471.928,427.407,463.836,471.332z M543.873,463.222c0.977-5.844,6.819-20.126-10.71-27.593    c-17.529-7.465-29.214,6.17-29.214,6.17l-7.142-16.557c3.569-11.688,20.171-18.954,31.647-17.854    c14.665,1.405,31.828,16.348,31.328,29.541C558.81,462.466,547.77,462.247,543.873,463.222z"></path><path d="M321.074,315.28c3.634-14.129,14.331-32.757,37.379-42.085c-14.1-3.73-26.896-6.034-38.173-7.363    c-11.093,1.308-23.648,3.557-37.473,7.176C308.667,286.201,321.074,315.28,321.074,315.28z"></path></g></g></svg>