<svg height='100px' width='100px'  fill="#0000ff" xmlns="http://www.w3.org/2000/svg" xmlns:xlink="http://www.w3.org/1999/xlink" version="1.1" x="0px" y="0px" viewBox="0 0 640 640" enable-background="new 0 0 640 640" xml:space="preserve"><g><path d="M263.625,411.809c0,0,7.9-33.194,57.496-33.487c42.313-0.249,54.273,27.835,59.057,34.793   c-7.141-3.679-29.978-22.395-56.753-20.876C292.764,393.978,271.887,403.111,263.625,411.809z"></path><path d="M215.786,429.422c0,0-0.16,0.074-0.452,0.229c-2.868,1.51-18.386,10.551-17.595,28.909   c0.869,20.222,30.008,49.794,85.239,48.055c-8.286-3.395-43.925-10.438-58.929-27.833c-15.004-17.395-17.066-40.076-8.424-49.286"></path><path d="M281.99,340.781c-4.749-13.712-15.034-22.6-22.974-19.85c-7.938,2.749-10.523,16.092-5.778,29.804   c4.749,13.716,15.035,22.601,22.973,19.852C284.15,367.839,286.737,354.493,281.99,340.781z M268.165,350.679   c-2.981,1.42-7.432-1.689-9.938-6.946c-2.506-5.258-2.121-10.673,0.858-12.093c2.982-1.422,7.431,1.688,9.937,6.944   C271.529,343.842,271.146,349.256,268.165,350.679z"></path><path d="M382.578,320.931c-7.941-2.75-18.225,6.138-22.975,19.85c-4.747,13.712-2.16,27.058,5.778,29.806   c7.939,2.749,18.225-6.136,22.972-19.852C393.101,337.023,390.514,323.68,382.578,320.931z M383.366,343.732   c-2.506,5.257-6.956,8.366-9.938,6.946c-2.982-1.423-3.367-6.837-0.857-12.095c2.506-5.257,6.954-8.366,9.936-6.944   C385.487,333.06,385.871,338.475,383.366,343.732z"></path><path d="M514.124,372.231c10.003-24.787,4.783-66.538-2.175-86.978c-31.746-76.54-132.207-97.85-132.207-97.85   c15.111-26.856-10.758-65.906-25.435-70.689c4.347,4.347,1.357,15.333-4.791,26.874c-3.677,6.897-16.541,15.977-31.874,24   c-12.38,19.363-42.77,56.087-80.617,82.382c-37.776,26.242-90.084,44.988-111.628,52.071c-8.85,28.944-5.281,55.032,2.976,70.626   c-64.842-13.301-87.657,46.997-80.952,73.132c18.278,71.254,80.625,52.661,93.673,44.833c22.179,34.249,81.979,81,189.83,77.955   c107.854-3.043,156.237-57.623,167.979-77.193c71.759,30.008,95.256-33.051,95.242-54.796   C594.101,361.261,520.213,370.494,514.124,372.231z M136.215,445.622c0,0-11.742-13.7-29.354-6.198   c-17.614,7.502-11.742,21.854-10.765,27.725c-3.913-0.979-15.006-0.761-15.983-26.419c-0.503-13.257,16.743-28.271,31.478-29.683   c11.531-1.106,28.214,6.196,31.801,17.939L136.215,445.622z M464.47,475.299c-8.131,44.137-63.305,82.469-136.479,86.532   c-73.177,4.065-145.773-41.814-150.998-86.532c-5.229-44.718,26.707-69.365,26.707-69.365s0.272-8.587-0.309-8.587   c-40.445-49.576-9.689-103.693,16.743-117.746c68.714-36.532,100.885,38.893,100.885,38.893   c5.228-20.327,24.974-49.946,74.92-48.094c49.945,1.853,64.701,62.217,59.475,88.351c-5.228,26.136-19.613,39.202-19.613,39.202   s-0.37,1.267,0.213,5.913C441.821,410.836,472.6,431.161,464.47,475.299z M544.892,467.148c0.979-5.871,6.851-20.223-10.763-27.725   s-29.354,6.198-29.354,6.198l-7.176-16.636c3.587-11.743,20.27-19.046,31.802-17.939c14.733,1.412,31.98,16.426,31.477,29.683   C559.899,466.388,548.807,466.17,544.892,467.148z"></path><path d="M199.006,80.167c-24.379,0-47.856,7.823-69.777,23.25c-32.061,22.864-59.82,79.901-50.337,103.434l0.493,1.224   l-1.053,0.799c-13.636,10.367-26.308,22.54-32.477,30.011c11.376-0.979,53.517-8.625,131.729-66.05   c41.889-30.438,91.239-74.157,105.323-101.564c-3.019,1.383-6.136,2.775-9.186,4.138c-10.896,4.864-22.162,9.895-28.141,14.16   l-0.834,0.594l-0.922-0.446C239.184,87.476,222.234,80.167,199.006,80.167z"></path><g><path d="M187.996,183.528c-2.66,2.06-3.146,5.913-1.079,8.572c2.063,2.659,5.907,3.145,8.569,1.08    c2.661-2.067,3.147-5.913,1.08-8.571C194.5,181.943,190.657,181.46,187.996,183.528z"></path><path d="M285.322,74.906c-10.176,14.776-42.712,57.717-104.753,102.77c-59.754,43.389-107.677,61.24-130.492,66.026l66.265,57.592    c11.484-3.54,75.276-23.994,118.711-54.166c47.005-32.658,81.891-81.58,84.954-91.1    C315.502,143.054,293.002,92.182,285.322,74.906z M235.187,240.537c-3.837,4.41-10.093,5.58-15.739,5.95    c-2.749,0.179-5.522,0.027-8.239-0.414c-1.917-0.317-5.83-0.648-7.332-1.954c0.004,0,4.971,4.325,4.971,4.325l-12.513-5.928    l12.864-5.668l-4.741,3.923c2.936,0.155,5.89,0.209,8.826-0.03c3.024-0.245,7.208-1.853,7.618-5.374    c0.345-2.959-9.987-17.836-17.888-28.701l-8.377,6.502c0.336,1.822-0.326,3.761-1.889,4.976c-2.229,1.731-5.443,1.329-7.178-0.904    c-1.73-2.229-1.324-5.443,0.907-7.176c1.561-1.216,3.605-1.376,5.284-0.598l8.483-6.584c-1.618-2.192-3.023-4.079-4.066-5.471    c-4.206,2.067-9.418,0.971-12.403-2.874c-3.418-4.401-2.618-10.742,1.781-14.155c4.4-3.417,10.736-2.616,14.151,1.785    c2.92,3.765,2.753,8.933-0.104,12.489c1.091,1.365,2.586,3.216,4.339,5.354l9.817-7.621c-0.333-1.82,0.331-3.759,1.896-4.974    c2.226-1.734,5.439-1.331,7.173,0.904c1.734,2.229,1.327,5.441-0.907,7.172c-1.563,1.216-3.604,1.378-5.284,0.6l-9.717,7.544    c8.571,10.342,20.415,24.042,23.369,24.444c3.51,0.477,6.11-3.178,7.099-6.048c0.956-2.785,1.635-5.654,2.214-8.545l-4.976,3.619    l8.683-11.052l2.64,13.594l-2.962-5.889C243.999,223.316,241.565,233.201,235.187,240.537z"></path></g></g></svg>