<svg height='100px' width='100px'  fill="#000000" xmlns="http://www.w3.org/2000/svg" xmlns:xlink="http://www.w3.org/1999/xlink" version="1.1" x="0px" y="0px" viewBox="0 0 640 640" enable-background="new 0 0 640 640" xml:space="preserve"><g><path d="M274.846,395.472c0,0,8.264-34.75,60.186-35.055c44.291-0.26,56.814,29.137,61.822,36.421   c-7.479-3.854-31.383-23.443-59.416-21.852C305.344,376.806,283.492,386.368,274.846,395.472z"></path><path d="M224.764,413.907c0,0-0.17,0.079-0.477,0.242c-3.004,1.579-19.246,11.043-18.416,30.262   c0.91,21.169,31.414,52.126,89.23,50.305c-8.672-3.554-45.982-10.928-61.689-29.136c-15.707-18.209-17.867-41.951-8.818-51.594"></path><path d="M294.063,321.119c-4.969-14.353-15.732-23.659-24.045-20.783c-8.309,2.879-11.02,16.846-6.047,31.202   c4.969,14.356,15.738,23.658,24.049,20.783C296.328,349.437,299.037,335.469,294.063,321.119z M279.592,331.479   c-3.121,1.484-7.773-1.77-10.398-7.275c-2.625-5.497-2.221-11.167,0.898-12.658c3.117-1.485,7.775,1.771,10.404,7.271   C283.121,324.32,282.713,329.989,279.592,331.479z"></path><path d="M399.365,300.336c-8.314-2.876-19.078,6.43-24.049,20.783c-4.969,14.35-2.262,28.317,6.047,31.202   c8.311,2.875,19.078-6.427,24.047-20.783C410.381,317.182,407.672,303.215,399.365,300.336z M400.191,324.203   c-2.625,5.506-7.281,8.76-10.402,7.275c-3.123-1.489-3.525-7.158-0.9-12.662c2.625-5.501,7.283-8.757,10.402-7.271   C402.408,313.036,402.814,318.707,400.191,324.203z"></path><path d="M376.51,252.627c-16.324,0.769-32.232,4.212-47.383,10.264c-4.631,1.848-9.434,3.701-14.35,5.547   c13.559,13.917,20.146,29.349,20.146,29.349C338.865,282.466,350.686,262.104,376.51,252.627z"></path><g><g><path d="M354.719,169.493c-3.092-1.856-14.93-3.282-16.889,0.846c-1.182,2.49,0.574,5.65,1.902,7.681     c2.787,4.253,6.996,7.111,12.342,6.556C358.645,183.886,359.975,172.648,354.719,169.493z"></path></g><g><path d="M327.854,188.58c-0.111,1.701,0.264,4.051,2.359,4.13c2.109,0.083,3.018-3.738,3.486-5.334     c0.17,1.654,0.113,5.469,2.166,6.169c2.057,0.708,3.135-1.695,3.068-3.369c-0.133-3.682-2.811-9.465-4.996-12.288     C331.238,179.376,328.049,185.543,327.854,188.58z"></path></g><g><path d="M329.633,170.339c-1.963-4.128-13.803-2.702-16.889-0.846c-5.262,3.155-3.924,14.393,2.645,15.083     c5.336,0.555,9.553-2.303,12.336-6.556C329.059,175.989,330.813,172.829,329.633,170.339z"></path></g><g><path d="M326.117,80.26c-105.205,0-192.789,75.237-212.012,174.833c-71.367-20.297-94.945,36.163-94.945,36.163     c0.777-1.869,33.02-3.163,35.725-3.177c11.691-0.059,25.188-3.374,37.084-8.725c-65.836,56.816-31.207,123.693-31.207,123.693     c-0.012-2.867,26.559-38.665,29.008-41.605c12.566-15.156,22.555-37.255,26.725-58.23     c26.791,9.549,133.346-17.388,209.623-47.856c113.457-45.321,215.973,65.542,215.973,40.877     C542.09,176.956,445.395,80.26,326.117,80.26z M402.102,207.392c-3.303,1.483-9.6,0.053-11.469,3.522     c-2.355,4.39-0.061,10.421-5.318,13.566c-3.402,2.036-6.285,0.061-7.637-3.248c-1.551-3.78,2.379-7.622,0.539-11.458     c-1.896-3.942-7.928-5.854-11.506-7.664c-5.232-2.641-10.492-5.225-15.762-7.79c-1.307,1.163-2.359,2.709-3.027,5.023     c-1.051,3.656-1.301,7.937-3.438,11.206c-1.902,2.896-4.943,3.309-8.072,3.343c-1.027,0.011-2.053-0.015-3.055-0.011     c-2.6,0.009-5.203-0.743-7.309-2.272c-2.553-1.862-2.781-4.296-3.734-7.204c-0.777-2.369-2.164-5.189-4.102-6.829     c-1.938-1.649-4.727-2.089-7.049-3.318c-0.047,0.022-0.088,0.044-0.139,0.062c-4.084,2.034-8.125,3.563-11.988,5.991     c-3.363,2.11-7.482,3.349-9.662,6.987c-2.107,3.504-1.789,8.224-5.422,10.745c-3.568,2.482-8.627,1.801-10.729-2.144     c-2.762-5.205,0.695-6.603,4.314-9.11c2.475-1.707,1.479-4.505-1.334-4.954c-2.121-0.333-4.387,1.106-6.572,0.984     c-6.752-0.361-6.439-13.464-0.34-14.358c2.113-0.306,4.813,2.619,6.838,3.414c3.566,1.409,6.045,2.671,9.879,1.56     c2.164-0.63,4.438-1.211,6.691-1.804c4.34-1.146,8.598-2.523,12.813-4.034c-2.34-5.184-3.715-10.729-3.939-16.404     c-3.104-1.24-6.119-2.509-9.438-3.359c-3.844-0.988-7.578-3.121-11.717-2.207c-3.996,0.886-7.195,4.359-11.527,3.458     c-4.258-0.886-7.24-5.025-5.82-9.257c1.869-5.588,5.271-4.036,9.576-3.138c2.938,0.622,4.287-2.028,2.678-4.373     c-1.221-1.774-3.82-2.435-5.244-4.098c-4.375-5.146,5.35-13.936,10.189-10.125c1.678,1.325,1.416,5.299,2.227,7.314     c1.434,3.555,2.223,6.222,5.66,8.239c1.955,1.142,3.939,2.387,5.922,3.613c2.576,1.595,5.205,3.079,7.869,4.512     c0.602-4.939,2.025-9.708,5.193-13.722c5.219-6.612,13.543-11.333,21.926-12.211c9.658-1.002,20.127,2.874,27.32,9.306     c5.635,5.044,7.658,11.82,8.865,18.965c3.352-1.227,6.701-2.445,10.078-3.601c4.795-1.637,9.641-2.939,12.127-7.716     c2.359-4.562,3.492-10.462,8.891-12.555c5.389-2.091,8.801,2.475,7.047,7.489c-1.193,3.417-6.566,6.998-5.328,10.748     c1.559,4.727,7.512,7.214,6.182,13.188c-0.863,3.874-4.281,4.606-7.607,3.314c-3.814-1.479-3.902-6.98-7.943-8.278     c-4.17-1.337-9.715,1.726-13.479,3.078c-2.939,1.055-5.867,2.123-8.799,3.206c0.459,5.846-0.092,12.025-4.986,15.501     c-0.354,0.253-0.711,0.486-1.07,0.708c4.4,2.172,8.799,4.349,13.146,6.625c4.486,2.353,8.773,4.981,13.947,3.488     c4.938-1.42,9.992-4.658,15.225-2.183C407.912,199.596,406.947,205.219,402.102,207.392z"></path></g></g><g><path d="M537.07,354.043c5.176-12.831,6.449-29.999,5.541-46.666c-1.129,0.356-2.33,0.596-3.639,0.596    c-6.273,0-13.605-4.048-29.596-13.202c-13.922-7.973-32.57-18.646-54.283-27.28c18.73,21.39,24.094,54.56,20.52,72.441    c-5.473,27.356-20.533,41.035-20.533,41.035s-0.389,1.326,0.227,6.185c6.074,7.303,38.295,28.577,29.785,74.783    c-8.512,46.201-66.268,86.328-142.869,90.58c-76.604,4.257-152.598-43.772-158.074-90.58    c-5.467-46.813,27.967-72.617,27.967-72.617s0.283-8.986-0.33-8.986c-21.223-26.019-23.709-53.229-17.432-75.75    c-24.404,5.383-46.324,8.7-62.26,8.7c-2.662,0-5.051-0.126-7.314-0.315c-0.404,16.831,3.076,31.329,8.477,41.533    c-10.221-2.098-19.428-2.42-27.699-1.408c-2.98,4.875-6.168,9.455-9.553,13.541c-2.682,3.221-24.469,32.803-27.426,38.596    c-0.771,2.768-2.984,4.989-5.883,5.699c-0.645,0.157-1.295,0.234-1.938,0.234c-2.975,0-5.781-1.645-7.199-4.381    c-0.133-0.258-1.305-2.578-2.795-6.485c-3.674,11.434-4.324,22.665-2.25,30.761c19.135,74.589,84.402,55.122,98.059,46.93    c23.219,35.85,85.816,84.791,198.719,81.607c112.906-3.185,163.555-60.322,175.842-80.81c3.92,1.637,7.666,2.952,11.313,4.08    c6.352-8.054,15.271-13.032,24.9-13.032c1.617,0,3.25,0.146,4.834,0.433c1.393,0.249,2.832,0.648,4.396,1.222    c2.727,0.993,4.18,3.954,3.303,6.717c-0.098,0.317-0.111,0.671-0.027,0.94c0.125,0.414,0.201,0.837,0.223,1.257    c0.979-0.214,1.756-0.413,2.68-0.649l1.471-0.373c0.432-0.108,0.871-0.161,1.307-0.161c1.576,0,3.1,0.689,4.141,1.931    c0.42,0.5,0.768,1.043,1.156,1.563c29.186-12.116,40.02-46.195,40.012-61.287C620.791,342.556,543.447,352.222,537.07,354.043z     M141.465,430.865c0,0-12.289-14.339-30.729-6.486c-18.436,7.848-12.293,22.873-11.268,29.022    c-4.1-1.023-15.709-0.798-16.73-27.656c-0.529-13.878,17.527-29.594,32.949-31.072c12.07-1.157,29.533,6.49,33.291,18.776    L141.465,430.865z M569.281,453.401c1.023-6.149,7.168-21.175-11.268-29.022c-18.441-7.853-30.729,6.486-30.729,6.486    l-7.516-17.416c3.758-12.286,21.223-19.934,33.295-18.776c15.422,1.479,33.475,17.194,32.947,31.072    C584.99,452.604,573.379,452.378,569.281,453.401z"></path><path d="M562.096,485.475c-0.85-0.466-1.666-0.76-2.498-0.912c-0.488-0.087-0.982-0.132-1.477-0.132    c-2.193,0-4.379,0.868-6.373,2.365c4.027,0.348,7.865,0.381,11.488,0.096c-0.043-0.321-0.053-0.645-0.037-0.97    C562.822,485.813,562.451,485.667,562.096,485.475z"></path></g><g><path d="M561.227,475.588c1.209,0.216,2.369,0.564,3.498,0.976c-0.428,1.348-0.455,2.814-0.047,4.156    c-1.283-0.696-2.648-1.214-4.115-1.479c-9.891-1.795-19.877,7.61-22.303,21.005c-2.42,13.388,3.635,25.698,13.525,27.489    c9.883,1.79,19.869-7.616,22.295-21.004c1.547-8.52-1.354-15.306-5.48-20.523c3.32-0.613,4.471-0.972,6.932-1.584    c5.994,7.135,8.086,17.026,6.031,28.365c-3.266,18.03-17.668,30.521-32.166,27.896c-14.494-2.625-23.6-19.373-20.334-37.402    C532.33,485.447,546.727,472.957,561.227,475.588z"></path></g></g></svg>