<?xml version="1.0" standalone="no"?>
<!DOCTYPE svg PUBLIC "-//W3C//DTD SVG 20010904//EN"
 "http://www.w3.org/TR/2001/REC-SVG-20010904/DTD/svg10.dtd">
<svg version="1.0" xmlns="http://www.w3.org/2000/svg"
 width="892.000000pt" height="892.000000pt" viewBox="0 0 892.000000 892.000000"
 preserveAspectRatio="xMidYMid meet">
<metadata>
Created by potrace 1.11, written by Peter Selinger 2001-2013
</metadata>
<g transform="translate(0.000000,892.000000) scale(0.100000,-0.100000)"
fill="#000000" stroke="none">
<path d="M3549 8375 c-53 -36 -139 -102 -190 -148 -193 -172 -289 -287 -540
-646 -135 -192 -294 -388 -442 -545 -126 -134 -325 -320 -412 -387 -27 -20
-74 -56 -104 -79 -115 -89 -296 -205 -442 -283 -392 -210 -814 -328 -1227
-344 -113 -4 -162 -10 -162 -18 0 -23 90 -196 131 -252 255 -348 729 -546
1494 -624 146 -15 664 -15 840 1 384 32 782 97 1047 171 309 86 531 138 716
169 l192 33 218 -37 c208 -35 305 -57 692 -160 279 -73 545 -117 990 -163 195
-20 731 -22 905 -4 331 34 615 92 822 167 126 45 309 137 398 200 158 111 293
269 365 427 45 99 46 97 -62 97 -267 1 -620 66 -893 166 -701 254 -1328 773
-1850 1529 -102 148 -119 172 -164 229 -132 169 -291 330 -424 429 -81 61
-196 137 -208 137 -4 0 -51 -44 -106 -98 -192 -191 -417 -285 -683 -285 -276
0 -507 97 -701 295 -48 48 -91 88 -95 88 -5 0 -52 -30 -105 -65z m896 -1230
c82 -21 178 -71 236 -123 57 -51 115 -160 125 -233 4 -27 11 -52 16 -55 14 -9
241 74 291 106 37 23 51 43 90 123 46 97 68 120 125 137 44 12 82 -18 82 -66
0 -40 -11 -63 -51 -114 -42 -52 -46 -87 -15 -132 14 -21 37 -54 51 -74 45 -66
25 -144 -38 -144 -42 0 -69 20 -101 73 -15 26 -38 49 -56 57 -37 15 -102 8
-162 -19 -23 -11 -78 -32 -120 -48 l-78 -28 0 -45 c0 -71 -26 -145 -63 -179
-20 -20 -28 -34 -22 -40 6 -5 78 -43 160 -85 174 -88 203 -92 320 -51 129 46
215 23 215 -57 0 -41 -47 -75 -115 -82 -113 -13 -134 -32 -143 -128 -11 -125
-102 -182 -152 -95 -12 21 -12 37 -3 92 13 74 7 101 -29 135 -28 27 -375 200
-400 200 -21 0 -55 -50 -63 -95 -20 -103 -29 -128 -61 -161 l-33 -36 -95 4
c-120 4 -141 17 -177 114 -14 38 -34 82 -44 98 -21 31 -105 76 -144 76 -32 0
-276 -127 -317 -165 -21 -21 -38 -50 -49 -90 -23 -78 -68 -125 -120 -125 -47
0 -71 13 -91 51 -21 42 -11 73 36 106 43 30 55 52 45 83 -9 27 -50 36 -104 21
-40 -11 -48 -10 -70 7 -72 53 -32 211 46 181 14 -5 37 -18 52 -28 66 -46 146
-52 261 -20 142 39 230 71 230 82 0 7 -9 36 -20 64 -11 29 -23 79 -26 110 -4
32 -11 65 -15 75 -12 23 -242 98 -301 98 -31 0 -67 -10 -110 -30 -73 -35 -79
-35 -123 -14 -62 29 -81 117 -35 159 16 14 30 16 83 11 53 -6 67 -4 81 9 30
31 21 47 -74 128 -46 39 -5 126 69 148 55 16 77 2 90 -63 17 -77 55 -150 93
-174 18 -11 58 -37 88 -56 30 -20 74 -45 98 -57 47 -24 45 -26 62 52 30 137
142 250 300 304 78 27 188 30 275 8z"/>
<path d="M4075 6680 c-87 -22 -119 -59 -117 -136 1 -82 47 -134 119 -134 57 0
91 14 136 58 99 95 101 197 5 216 -39 8 -105 6 -143 -4z"/>
<path d="M4453 6682 c-38 -12 -63 -40 -63 -69 1 -64 78 -168 143 -192 41 -16
109 -13 135 5 33 23 52 67 52 119 0 62 -22 101 -68 121 -41 17 -164 27 -199
16z"/>
<path d="M4307 6500 c-60 -71 -84 -171 -49 -203 25 -23 37 -21 61 9 18 23 21
24 21 7 0 -43 45 -57 75 -23 13 15 16 30 12 61 -6 46 -65 171 -83 177 -6 1
-23 -11 -37 -28z"/>
<path d="M4345 5343 c-69 -11 -377 -73 -439 -89 -36 -9 -66 -20 -66 -25 0 -5
19 -21 43 -35 154 -96 289 -218 393 -359 87 -117 182 -280 170 -292 -10 -10
-316 29 -496 64 -218 41 -500 115 -725 188 -38 13 -101 33 -140 45 -38 12
-158 53 -265 91 l-196 69 -104 -10 c-308 -29 -727 -22 -1030 16 -104 12 -116
12 -127 -2 -18 -25 -89 -248 -119 -379 -27 -113 -28 -134 -29 -350 0 -156 4
-249 13 -290 21 -93 62 -226 84 -268 l19 -38 -63 8 c-35 4 -135 8 -223 7 -140
-1 -172 -4 -256 -27 -331 -90 -575 -318 -705 -660 -74 -193 -90 -400 -44 -567
164 -595 571 -890 1128 -816 117 15 302 67 361 100 24 13 26 11 98 -84 146
-197 382 -411 628 -572 519 -338 1132 -525 1905 -579 154 -11 575 -7 720 7
275 26 584 79 785 135 140 39 369 116 417 140 21 11 42 19 48 19 6 0 80 33
165 74 388 187 686 412 929 701 37 44 81 101 98 127 24 37 34 45 47 39 9 -5
63 -25 121 -44 284 -95 568 -97 788 -5 301 125 533 442 607 833 18 91 19 169
5 285 -37 297 -146 523 -324 671 -200 167 -547 262 -847 233 -57 -6 -105 -10
-106 -10 -1 1 10 39 23 86 75 258 68 744 -17 1104 -17 72 -34 135 -38 139 -4
4 -88 -1 -187 -12 -98 -11 -222 -23 -274 -26 -134 -9 -490 -9 -647 0 -110 6
-133 5 -133 -7 0 -46 -340 -311 -380 -296 -4 2 -29 29 -54 60 -210 258 -602
329 -902 163 -105 -58 -228 -187 -284 -298 l-45 -89 -59 6 c-32 3 -76 6 -97 6
-49 0 -49 9 -9 114 92 238 265 425 499 541 40 20 70 40 65 45 -11 10 -186 51
-364 86 -128 25 -299 38 -365 27z m-1710 -593 c208 -77 621 -211 737 -240 l47
-12 -30 -38 c-67 -83 -86 -230 -49 -376 55 -221 213 -404 349 -404 52 0 89 18
129 64 42 48 62 121 62 226 0 133 -44 271 -121 380 -21 30 -35 56 -31 58 5 1
89 -13 188 -33 155 -31 423 -68 657 -90 l67 -7 0 -38 c0 -59 46 -224 80 -288
123 -231 363 -380 615 -384 136 -1 234 22 359 84 99 50 233 179 289 279 70
127 104 297 87 448 l-4 44 53 28 c94 50 214 136 294 210 43 39 79 70 81 68 14
-15 70 -166 95 -256 38 -135 53 -242 53 -398 0 -141 -12 -212 -57 -350 -52
-160 -140 -320 -235 -428 -33 -37 -40 -52 -40 -87 0 -41 5 -47 110 -152 221
-219 327 -405 365 -641 70 -431 -99 -845 -480 -1175 -364 -315 -882 -531
-1455 -604 -225 -29 -594 -31 -790 -4 -488 66 -974 262 -1345 540 -100 75
-304 278 -373 371 -68 91 -155 270 -179 365 -27 114 -25 401 5 527 55 232 166
434 335 610 l79 83 -4 67 c-4 64 -7 73 -62 148 -77 107 -119 179 -162 283
-151 361 -123 755 79 1109 30 54 45 72 57 67 8 -3 74 -27 145 -54z m920 -462
c65 -56 101 -166 76 -230 -14 -38 -67 -39 -111 -2 -61 52 -105 176 -80 225 26
50 65 52 115 7z m4354 -1263 c195 -45 408 -252 427 -417 8 -70 -11 -214 -38
-286 -26 -70 -88 -138 -139 -154 -22 -6 -41 -9 -44 -6 -3 2 0 40 6 84 21 150
-25 255 -145 323 -157 90 -325 85 -467 -14 l-64 -45 -17 38 c-66 142 -88 198
-88 217 0 24 56 103 104 146 47 42 163 98 236 113 87 19 147 19 229 1z m-6674
-10 c134 -29 274 -123 325 -218 l24 -44 -54 -126 -53 -125 -47 34 c-145 104
-301 117 -460 38 -147 -74 -201 -188 -169 -358 6 -32 8 -60 5 -63 -11 -12 -70
11 -103 40 -79 70 -117 184 -118 352 0 91 3 106 29 160 41 83 159 199 257 253
125 69 230 85 364 57z"/>
<path d="M4285 3574 c-309 -48 -541 -177 -674 -374 -32 -47 -81 -147 -81 -164
0 -15 25 -3 72 35 115 90 324 174 548 219 251 50 416 61 562 35 173 -30 343
-99 543 -221 61 -36 122 -74 137 -83 38 -22 45 -7 16 36 -14 21 -42 65 -64 97
-126 193 -321 329 -559 392 -88 23 -122 27 -285 29 -102 2 -198 1 -215 -1z"/>
<path d="M2708 2721 c-117 -74 -216 -217 -239 -346 -47 -258 163 -548 526
-725 205 -100 409 -147 716 -165 166 -9 184 9 52 50 -327 101 -433 140 -556
201 -220 111 -340 227 -432 419 -66 137 -79 191 -79 331 -1 117 0 122 33 187
19 37 32 69 29 72 -2 3 -25 -8 -50 -24z"/>
</g>
</svg>
