<svg version="1.1" viewBox="0.0 0.0 140.0 140.0" fill="none" stroke="none" stroke-linecap="square" stroke-miterlimit="10" xmlns:xlink="http://www.w3.org/1999/xlink" xmlns="http://www.w3.org/2000/svg"><clipPath id="g1a5ee990978_0_23.0"><path d="m0 0l140.0 0l0 140.0l-140.0 0l0 -140.0z" clip-rule="nonzero"/></clipPath><g clip-path="url(#g1a5ee990978_0_23.0)"><path fill="#000000" fill-opacity="0.0" d="m0 0l140.0 0l0 140.0l-140.0 0z" fill-rule="evenodd"/><path fill="#000000" d="m11.372887 33.846226l22.47334 -22.47334l36.153774 36.153774l36.15377 -36.153774l22.47335 22.47334l-36.153778 36.153774l36.153778 36.15377l-22.47335 22.47335l-36.15377 -36.153778l-36.153774 36.153778l-22.47334 -22.47335l36.153774 -36.15377z" fill-rule="evenodd"/><path stroke="#000000" stroke-width="1.0" stroke-linejoin="round" stroke-linecap="butt" d="m11.372887 33.846226l22.47334 -22.47334l36.153774 36.153774l36.15377 -36.153774l22.47335 22.47334l-36.153778 36.153774l36.153778 36.15377l-22.47335 22.47335l-36.15377 -36.153778l-36.153774 36.153778l-22.47334 -22.47335l36.153774 -36.15377z" fill-rule="evenodd"/></g></svg>