<svg height='100px' width='100px'  fill="#000000" xmlns="http://www.w3.org/2000/svg" xmlns:xlink="http://www.w3.org/1999/xlink" version="1.1" x="0px" y="0px" viewBox="0 0 100 100" enable-background="new 0 0 100 100" xml:space="preserve"><g><path d="M20.478,34.056l0.647,0.975c5.083-8.402,13.907-14.12,23.718-15.185l2.112-0.229v5.065l10.942-7.274l-10.942-6.959v4.999   l-1.745,0.148c-11.045,0.94-21,6.956-27.033,16.229C19.082,32.378,19.866,33.133,20.478,34.056z"></path><path d="M16.863,53.155l-0.229-2.112H21.7L14.424,40.1L7.465,51.042h4.999l0.148,1.744c1.041,12.227,8.274,23.02,19.075,28.707   c0.521-1.328,1.438-2.502,2.66-3.357C24.752,73.368,18.03,63.906,16.863,53.155z"></path><path d="M78.479,67.433l-0.91-1.369c-5.039,8.625-13.953,14.494-23.961,15.578l-2.113,0.229v-5.064l-10.943,7.275l10.943,6.959   v-4.998l1.746-0.147c11.146-0.949,21.168-7.058,27.187-16.467C79.667,68.896,79.005,68.222,78.479,67.433z"></path><path d="M86.346,48.698c-1.06-12.432-8.451-23.303-19.498-28.926c-0.479,1.342-1.353,2.537-2.535,3.43   c9.763,4.714,16.603,14.232,17.782,25.128l0.229,2.112h-5.065l7.274,10.944l6.959-10.944h-4.998L86.346,48.698z"></path></g><path d="M36.781,38.045v25.394h25.395V38.045H36.781z M61.302,44.818h-5.843v5.924h5.843v5.926h-5.843v5.898h-5.953v-5.898h-5.898  v5.898h-5.952v-5.898h5.952v-5.844h-5.952v-5.952h5.952v5.952h5.898v5.844h5.953v-5.926h-5.953v-5.924h-5.898v-5.898l5.898-0.001  v5.899h5.953v-5.899h5.843V44.818z"></path></svg>