<svg height='100px' width='100px'  fill="#000000" xmlns="http://www.w3.org/2000/svg" xmlns:xlink="http://www.w3.org/1999/xlink" version="1.1" x="0px" y="0px" viewBox="0 0 100 100" style="enable-background:new 0 0 100 100;" xml:space="preserve"><path d="M65.9365234,72.8215332v-1.920166c0-2.4667969-2.0068359-4.4736328-4.4736328-4.4736328h-0.0317383l-3.2778931-18.6992188  h0.0020142c1.5957031,0,2.8935547-1.2978516,2.8935547-2.8935547v-1.765625c0-0.9335938-0.4517212-1.7563477-1.1399536-2.2857666  c1.9099731-2.3032227,2.9539185-5.1634521,2.9539185-8.2064209c0-7.1132812-5.7871094-12.9003906-12.9008789-12.9003906  c-7.1132812,0-12.9003906,5.7871094-12.9003906,12.9003906c0,3.0418091,1.0440063,5.9022217,2.9541016,8.2062378  c-0.6883545,0.5294189-1.1401367,1.3522949-1.1401367,2.2859497v1.765625c0,1.5957031,1.2978516,2.8935547,2.8935547,2.8935547  h0.0020142l-3.2778931,18.6992188h-0.0317383c-2.4667969,0-4.4736328,2.0068359-4.4736328,4.4736328v1.920166  c-1.4940796,0.4494629-2.5922852,1.8216553-2.5922852,3.4606934v3.0410156c0,0.5527344,0.4477539,1,1,1h35.1333008  c0.5522461,0,1-0.4472656,1-1v-3.0410156C68.5288086,74.6431885,67.430603,73.2709961,65.9365234,72.8215332z   M49.9619141,21.6767578c6.0107422,0,10.9008789,4.8896484,10.9008789,10.9003906  c0,2.8746338-1.1053467,5.5531006-3.1019287,7.5986328H42.1627808c-1.9963989-2.0472412-3.1012573-4.7253418-3.1012573-7.5986328  C39.0615234,26.5664062,43.9511719,21.6767578,49.9619141,21.6767578z M40.8754883,44.8349609v-1.765625  c0-0.4931641,0.4008789-0.8935547,0.8935547-0.8935547h16.3862305c0.4926758,0,0.8935547,0.4003906,0.8935547,0.8935547v1.765625  c0,0.4931641-0.4008789,0.8935547-0.8935547,0.8935547H41.769043C41.2763672,45.7285156,40.8754883,45.328125,40.8754883,44.8349609  z M43.8013916,47.7285156h12.3215332l3.2778931,18.6992188H40.5234985L43.8013916,47.7285156z M38.4614258,68.4277344h23.0014648  c1.3637695,0,2.4736328,1.109375,2.4736328,2.4736328v1.7509766H35.987793v-1.7509766  C35.987793,69.5371094,37.0976562,68.4277344,38.4614258,68.4277344z M66.5288086,78.3232422H33.3955078v-2.0410156  c0-0.8984375,0.730957-1.6298828,1.6293945-1.6298828h29.8745117c0.8984375,0,1.6293945,0.7314453,1.6293945,1.6298828V78.3232422z"></path><path d="M72.5463867,10H15.4272461c-0.5522461,0-1,0.4472656-1,1v78c0,0.5527344,0.4477539,1,1,1h57.1191406  c3.1508789,0,5.7143555-2.5634766,5.7143555-5.7138672V64.9990234h4.3100586c1.6557617,0,3.0024414-1.3466797,3.0024414-3.0019531  v-7.4951172c0-0.7723999-0.3009644-1.4703369-0.7814941-2.0028687c0.4805298-0.5324097,0.7814941-1.2301025,0.7814941-2.0020142  v-7.4951172c0-0.7723999-0.3009644-1.4703369-0.7814941-2.0028687c0.4805298-0.5324097,0.7814941-1.2301025,0.7814941-2.0020142  v-7.4951172c0-0.7723999-0.3009644-1.4703369-0.7814941-2.0028687c0.4805298-0.5324097,0.7814941-1.2301025,0.7814941-2.0020142  v-7.4951172c0-1.65625-1.3466797-3.0029297-3.0024414-3.0029297h-4.3100586v-1.2851562  C78.2607422,12.5634766,75.6972656,10,72.5463867,10z M83.5732422,31.5019531v7.4951172  c0,0.5527344-0.449707,1.0019531-1.0024414,1.0019531h-4.3100586v-9.5h4.3100586  C83.1235352,30.4990234,83.5732422,30.9492188,83.5732422,31.5019531z M83.5732422,43.0019531v7.4951172  c0,0.5527344-0.449707,1.0019531-1.0024414,1.0019531h-4.3100586v-9.5h4.3100586  C83.1235352,41.9990234,83.5732422,42.4492188,83.5732422,43.0019531z M16.4272461,12h6.5v76h-6.5V12z M76.2607422,84.2861328  C76.2607422,86.3339844,74.5947266,88,72.5463867,88H24.9272461V12h47.6191406c2.0483398,0,3.7143555,1.6660156,3.7143555,3.7138672  V84.2861328z M83.5732422,61.9970703c0,0.5527344-0.449707,1.0019531-1.0024414,1.0019531h-4.3100586v-9.5h4.3100586  c0.5527344,0,1.0024414,0.4501953,1.0024414,1.0029297V61.9970703z M82.5708008,18.9990234  c0.5527344,0,1.0024414,0.4501953,1.0024414,1.0029297v7.4951172c0,0.5527344-0.449707,1.0019531-1.0024414,1.0019531h-4.3100586  v-9.5H82.5708008z"></path></svg>